<?xml version="1.0" encoding="UTF-8" standalone="no"?>
<!-- Created with Inkscape (http://www.inkscape.org/) -->

<svg
   xmlns:dc="http://purl.org/dc/elements/1.1/"
   xmlns:cc="http://creativecommons.org/ns#"
   xmlns:rdf="http://www.w3.org/1999/02/22-rdf-syntax-ns#"
   xmlns:svg="http://www.w3.org/2000/svg"
   xmlns="http://www.w3.org/2000/svg"
   xmlns:xlink="http://www.w3.org/1999/xlink"
   xmlns:sodipodi="http://sodipodi.sourceforge.net/DTD/sodipodi-0.dtd"
   xmlns:inkscape="http://www.inkscape.org/namespaces/inkscape"
   version="1.0"
   width="48"
   height="48"
   id="svg2408"
   inkscape:version="0.48.4 r9939"
   sodipodi:docname="dark-theme-icon.svg">
  <metadata
     id="metadata76">
    <rdf:RDF>
      <cc:Work
         rdf:about="">
        <dc:format>image/svg+xml</dc:format>
        <dc:type
           rdf:resource="http://purl.org/dc/dcmitype/StillImage" />
      </cc:Work>
    </rdf:RDF>
  </metadata>
  <sodipodi:namedview
     pagecolor="#ffffff"
     bordercolor="#666666"
     borderopacity="1"
     objecttolerance="10"
     gridtolerance="10"
     guidetolerance="10"
     inkscape:pageopacity="0"
     inkscape:pageshadow="2"
     inkscape:window-width="857"
     inkscape:window-height="634"
     id="namedview74"
     showgrid="false"
     showborder="true"
     borderlayer="false"
     inkscape:zoom="2.4583333"
     inkscape:cx="15.457627"
     inkscape:cy="15.457627"
     inkscape:window-x="315"
     inkscape:window-y="24"
     inkscape:window-maximized="0"
     inkscape:current-layer="svg2408" />
  <defs
     id="defs2410">
    <linearGradient
       id="linearGradient3672">
      <stop
         id="stop3674"
         style="stop-color:#ffffff;stop-opacity:0"
         offset="0" />
      <stop
         id="stop3676"
         style="stop-color:#ffffff;stop-opacity:0"
         offset="0.30000001" />
      <stop
         id="stop3678"
         style="stop-color:#ffffff;stop-opacity:0.48387095"
         offset="0.5" />
      <stop
         id="stop3680"
         style="stop-color:#ffffff;stop-opacity:0"
         offset="0.75264549" />
      <stop
         id="stop3682"
         style="stop-color:#ffffff;stop-opacity:0"
         offset="1" />
    </linearGradient>
    <linearGradient
       id="linearGradient3650">
      <stop
         id="stop3652"
         style="stop-color:#000000;stop-opacity:0"
         offset="0" />
      <stop
         id="stop3660"
         style="stop-color:#000000;stop-opacity:0"
         offset="0.30000001" />
      <stop
         id="stop3658"
         style="stop-color:#000000;stop-opacity:0.11764706"
         offset="0.5" />
      <stop
         id="stop3662"
         style="stop-color:#000000;stop-opacity:0"
         offset="0.69999999" />
      <stop
         id="stop3654"
         style="stop-color:#000000;stop-opacity:0"
         offset="1" />
    </linearGradient>
    <linearGradient
       id="linearGradient3622">
      <stop
         id="stop3624"
         style="stop-color:#d6d6d6;stop-opacity:1"
         offset="0" />
      <stop
         id="stop3626"
         style="stop-color:#eaeaea;stop-opacity:1"
         offset="1" />
    </linearGradient>
    <linearGradient
       id="linearGradient3614">
      <stop
         id="stop3616"
         style="stop-color:#b3b3b3;stop-opacity:1"
         offset="0" />
      <stop
         id="stop3618"
         style="stop-color:#d2d2d2;stop-opacity:1"
         offset="1" />
    </linearGradient>
    <linearGradient
       x1="45.447727"
       y1="92.539597"
       x2="45.447727"
       y2="7.0165396"
       id="ButtonShadow"
       gradientUnits="userSpaceOnUse"
       gradientTransform="scale(1.0058652,0.994169)">
      <stop
         id="stop3750"
         style="stop-color:#000000;stop-opacity:1"
         offset="0" />
      <stop
         id="stop3752"
         style="stop-color:#000000;stop-opacity:0.58823532"
         offset="1" />
    </linearGradient>
    <linearGradient
       id="linearGradient3737">
      <stop
         id="stop3739"
         style="stop-color:#ffffff;stop-opacity:1"
         offset="0" />
      <stop
         id="stop3741"
         style="stop-color:#ffffff;stop-opacity:0"
         offset="1" />
    </linearGradient>
    <filter
       color-interpolation-filters="sRGB"
       id="filter3174">
      <feGaussianBlur
         id="feGaussianBlur3176"
         stdDeviation="1.71" />
    </filter>
    <linearGradient
       x1="36.357143"
       y1="6"
       x2="36.357143"
       y2="63.893143"
       id="linearGradient3188"
       xlink:href="#linearGradient3737"
       gradientUnits="userSpaceOnUse" />
    <filter
       x="-0.192"
       y="-0.192"
       width="1.3839999"
       height="1.3839999"
       color-interpolation-filters="sRGB"
       id="filter3794">
      <feGaussianBlur
         id="feGaussianBlur3796"
         stdDeviation="5.28" />
    </filter>
    <linearGradient
       x1="48"
       y1="20.220806"
       x2="48"
       y2="138.66119"
       id="linearGradient3613"
       xlink:href="#linearGradient3737"
       gradientUnits="userSpaceOnUse" />
    <radialGradient
       cx="48"
       cy="90.171875"
       r="42"
       fx="48"
       fy="90.171875"
       id="radialGradient3619"
       xlink:href="#linearGradient3737"
       gradientUnits="userSpaceOnUse"
       gradientTransform="matrix(1.1573129,0,0,0.99590774,-7.5510206,0.19713193)" />
    <clipPath
       id="clipPath3613">
      <rect
         width="84"
         height="84"
         rx="6"
         ry="6"
         x="6"
         y="6"
         id="rect3615"
         style="fill:#ffffff;fill-opacity:1;fill-rule:nonzero;stroke:none" />
    </clipPath>
    <linearGradient
       x1="63.535717"
       y1="90"
       x2="32.07143"
       y2="6"
       id="linearGradient3617"
       xlink:href="#linearGradient3614"
       gradientUnits="userSpaceOnUse" />
    <linearGradient
       x1="16"
       y1="46"
       x2="80"
       y2="46"
       id="linearGradient3628"
       xlink:href="#linearGradient3622"
       gradientUnits="userSpaceOnUse"
       gradientTransform="translate(-2,-94)" />
    <linearGradient
       x1="67.071426"
       y1="78"
       x2="48"
       y2="14"
       id="linearGradient3641"
       xlink:href="#linearGradient3737"
       gradientUnits="userSpaceOnUse" />
    <linearGradient
       x1="6"
       y1="48"
       x2="48"
       y2="81.071426"
       id="linearGradient3656"
       xlink:href="#linearGradient3650"
       gradientUnits="userSpaceOnUse" />
    <linearGradient
       x1="6"
       y1="48"
       x2="48"
       y2="81.071426"
       id="linearGradient3666"
       xlink:href="#linearGradient3650"
       gradientUnits="userSpaceOnUse"
       gradientTransform="matrix(-1,0,0,1,96,0)" />
    <linearGradient
       x1="13.321428"
       y1="48"
       x2="48"
       y2="84.285713"
       id="linearGradient3670"
       xlink:href="#linearGradient3672"
       gradientUnits="userSpaceOnUse"
       gradientTransform="matrix(1,0,0,-1,0,96)" />
    <linearGradient
       x1="13.321428"
       y1="48"
       x2="48"
       y2="84.285713"
       id="linearGradient3686"
       xlink:href="#linearGradient3672"
       gradientUnits="userSpaceOnUse"
       gradientTransform="matrix(-1,0,0,-1,96,96)" />
    <linearGradient
       x1="45.447727"
       y1="92.539597"
       x2="45.447727"
       y2="7.0165396"
       id="ButtonShadow-0"
       gradientUnits="userSpaceOnUse"
       gradientTransform="matrix(1.0058652,0,0,0.994169,100,0)">
      <stop
         id="stop3750-8"
         style="stop-color:#000000;stop-opacity:1"
         offset="0" />
      <stop
         id="stop3752-5"
         style="stop-color:#000000;stop-opacity:0.58823532"
         offset="1" />
    </linearGradient>
    <linearGradient
       x1="32.251034"
       y1="6.1317081"
       x2="32.251034"
       y2="90.238609"
       id="linearGradient3780"
       xlink:href="#ButtonShadow-0"
       gradientUnits="userSpaceOnUse"
       gradientTransform="matrix(1.0238095,0,0,1.0119048,-1.1428571,-98.071429)" />
    <linearGradient
       x1="32.251034"
       y1="6.1317081"
       x2="32.251034"
       y2="90.238609"
       id="linearGradient3772"
       xlink:href="#ButtonShadow-0"
       gradientUnits="userSpaceOnUse"
       gradientTransform="matrix(1.0238095,0,0,1.0119048,-1.1428571,-98.071429)" />
    <linearGradient
       x1="32.251034"
       y1="6.1317081"
       x2="32.251034"
       y2="90.238609"
       id="linearGradient3725"
       xlink:href="#ButtonShadow-0"
       gradientUnits="userSpaceOnUse"
       gradientTransform="matrix(1.0238095,0,0,1.0119048,-1.1428571,-98.071429)" />
    <linearGradient
       x1="32.251034"
       y1="6.1317081"
       x2="32.251034"
       y2="90.238609"
       id="linearGradient3721"
       xlink:href="#ButtonShadow-0"
       gradientUnits="userSpaceOnUse"
       gradientTransform="translate(0,-97)" />
    <linearGradient
       x1="32.251034"
       y1="6.1317081"
       x2="32.251034"
       y2="90.238609"
       id="linearGradient2969"
       xlink:href="#ButtonShadow-0"
       gradientUnits="userSpaceOnUse"
       gradientTransform="matrix(1.0238095,0,0,1.0119048,-1.1428571,-98.071429)" />
    <linearGradient
       inkscape:collect="always"
       xlink:href="#linearGradient3614"
       id="linearGradient3053"
       gradientUnits="userSpaceOnUse"
       x1="63.535717"
       y1="90"
       x2="32.07143"
       y2="6" />
    <linearGradient
       inkscape:collect="always"
       xlink:href="#linearGradient3672"
       id="linearGradient3055"
       gradientUnits="userSpaceOnUse"
       gradientTransform="matrix(-1,0,0,-1,96,96)"
       x1="13.321428"
       y1="48"
       x2="48"
       y2="84.285713" />
    <linearGradient
       inkscape:collect="always"
       xlink:href="#linearGradient3672"
       id="linearGradient3057"
       gradientUnits="userSpaceOnUse"
       gradientTransform="matrix(1,0,0,-1,0,96)"
       x1="13.321428"
       y1="48"
       x2="48"
       y2="84.285713" />
    <linearGradient
       inkscape:collect="always"
       xlink:href="#linearGradient3650"
       id="linearGradient3059"
       gradientUnits="userSpaceOnUse"
       x1="6"
       y1="48"
       x2="48"
       y2="81.071426" />
    <linearGradient
       inkscape:collect="always"
       xlink:href="#linearGradient3737"
       id="linearGradient3061"
       gradientUnits="userSpaceOnUse"
       x1="36.357143"
       y1="6"
       x2="36.357143"
       y2="63.893143" />
    <linearGradient
       inkscape:collect="always"
       xlink:href="#linearGradient3650"
       id="linearGradient3063"
       gradientUnits="userSpaceOnUse"
       gradientTransform="matrix(-1,0,0,1,96,0)"
       x1="6"
       y1="48"
       x2="48"
       y2="81.071426" />
    <radialGradient
       inkscape:collect="always"
       xlink:href="#linearGradient3737"
       id="radialGradient3065"
       gradientUnits="userSpaceOnUse"
       gradientTransform="matrix(1.1573129,0,0,0.99590774,-7.5510206,0.19713193)"
       cx="48"
       cy="90.171875"
       fx="48"
       fy="90.171875"
       r="42" />
    <linearGradient
       inkscape:collect="always"
       xlink:href="#linearGradient3622"
       id="linearGradient3067"
       gradientUnits="userSpaceOnUse"
       gradientTransform="translate(-2,-94)"
       x1="16"
       y1="46"
       x2="80"
       y2="46" />
    <linearGradient
       inkscape:collect="always"
       xlink:href="#linearGradient3737"
       id="linearGradient3069"
       gradientUnits="userSpaceOnUse"
       x1="67.071426"
       y1="78"
       x2="48"
       y2="14" />
    <linearGradient
       inkscape:collect="always"
       xlink:href="#linearGradient3737"
       id="linearGradient3235"
       gradientUnits="userSpaceOnUse"
       x1="67.071426"
       y1="78"
       x2="48"
       y2="14"
       gradientTransform="translate(-111.45762,-3.2542373)" />
    <linearGradient
       inkscape:collect="always"
       xlink:href="#linearGradient3622"
       id="linearGradient3238"
       gradientUnits="userSpaceOnUse"
       gradientTransform="translate(-5.2542373,17.457628)"
       x1="16"
       y1="46"
       x2="80"
       y2="46" />
    <radialGradient
       inkscape:collect="always"
       xlink:href="#linearGradient3737"
       id="radialGradient3241"
       gradientUnits="userSpaceOnUse"
       gradientTransform="matrix(1.1573129,0,0,0.99590774,-119.00864,-51.057105)"
       cx="48"
       cy="90.171875"
       fx="48"
       fy="90.171875"
       r="42" />
    <linearGradient
       inkscape:collect="always"
       xlink:href="#linearGradient3650"
       id="linearGradient3244"
       gradientUnits="userSpaceOnUse"
       gradientTransform="matrix(-1,0,0,1,-15.457628,-3.2542373)"
       x1="6"
       y1="48"
       x2="48"
       y2="81.071426" />
    <linearGradient
       inkscape:collect="always"
       xlink:href="#linearGradient3737"
       id="linearGradient3247"
       gradientUnits="userSpaceOnUse"
       x1="36.357143"
       y1="6"
       x2="36.357143"
       y2="63.893143"
       gradientTransform="translate(-111.45762,-51.254237)" />
    <linearGradient
       inkscape:collect="always"
       xlink:href="#linearGradient3650"
       id="linearGradient3250"
       gradientUnits="userSpaceOnUse"
       x1="6"
       y1="48"
       x2="48"
       y2="81.071426"
       gradientTransform="translate(-111.45762,-3.2542373)" />
    <linearGradient
       inkscape:collect="always"
       xlink:href="#linearGradient3672"
       id="linearGradient3253"
       gradientUnits="userSpaceOnUse"
       gradientTransform="matrix(1,0,0,-1,-111.45762,92.745763)"
       x1="13.321428"
       y1="48"
       x2="48"
       y2="84.285713" />
    <linearGradient
       inkscape:collect="always"
       xlink:href="#linearGradient3672"
       id="linearGradient3256"
       gradientUnits="userSpaceOnUse"
       gradientTransform="matrix(-1,0,0,-1,-15.457628,92.745763)"
       x1="13.321428"
       y1="48"
       x2="48"
       y2="84.285713" />
    <linearGradient
       inkscape:collect="always"
       xlink:href="#linearGradient3614"
       id="linearGradient3259"
       gradientUnits="userSpaceOnUse"
       x1="63.535717"
       y1="90"
       x2="32.07143"
       y2="6"
       gradientTransform="translate(-111.45762,-3.2542373)" />
  </defs>
  <g
     id="layer2"
     style="display:none"
     transform="translate(0,-48)">
    <rect
       width="86"
       height="85"
       rx="6"
       ry="6"
       x="5"
       y="7"
       id="rect3745"
       style="opacity:0.9;fill:url(#ButtonShadow);fill-opacity:1;fill-rule:nonzero;stroke:none;filter:url(#filter3174)" />
  </g>
  <path
     inkscape:connector-curvature="0"
     style="opacity:0.5;fill:url(#linearGradient3247);fill-opacity:1;fill-rule:nonzero;stroke:none"
     id="rect3728"
     d="m -99.457625,-45.254237 c -3.323995,0 -5.999995,2.676 -5.999995,6 l 0,2 0,68 0,2 c 0,0.334721 0.0414,0.6507 0.0937,0.96875 0.0487,0.295596 0.097,0.596915 0.1875,0.875 0.01,0.03038 0.0209,0.0636 0.0312,0.09375 0.0989,0.287771 0.23488,0.547452 0.375,0.8125 0.14459,0.273507 0.31561,0.535615 0.5,0.78125 0.18438,0.245635 0.37377,0.473472 0.59375,0.6875 0.43994,0.428056 0.94291,0.814526 1.5,1.09375 0.27854,0.139612 0.57347,0.246947 0.875,0.34375 -0.2562,-0.100222 -0.48671,-0.236272 -0.71875,-0.375 -0.007,-0.0044 -0.0239,0.0045 -0.0312,0 -0.0319,-0.0193 -0.0623,-0.04251 -0.0937,-0.0625 -0.1204,-0.0767 -0.23103,-0.163513 -0.34375,-0.25 -0.10618,-0.0808 -0.21328,-0.161112 -0.3125,-0.25 -0.17793,-0.161433 -0.34746,-0.345388 -0.5,-0.53125 -0.10758,-0.130255 -0.2184,-0.265285 -0.3125,-0.40625 -0.0251,-0.03838 -0.0384,-0.08587 -0.0625,-0.125 -0.0648,-0.103032 -0.13023,-0.204517 -0.1875,-0.3125 -0.10101,-0.194706 -0.20568,-0.415701 -0.28125,-0.625 -0.008,-0.02181 -0.0236,-0.04055 -0.0312,-0.0625 -0.0318,-0.09195 -0.0358,-0.186831 -0.0625,-0.28125 -0.0303,-0.106618 -0.0704,-0.203031 -0.0937,-0.3125 -0.0729,-0.341512 -0.125,-0.698205 -0.125,-1.0625 l 0,-2 0,-68 0,-2 c 0,-2.781848 2.21815,-5 4.999995,-5 l 2,0 67.999997,0 2,0 c 2.781848,0 5,2.218152 5,5 l 0,2 0,68 0,2 c 0,0.364295 -0.05212,0.720988 -0.125,1.0625 -0.04415,0.206893 -0.08838,0.397658 -0.15625,0.59375 -0.0077,0.02195 -0.0233,0.04069 -0.03125,0.0625 -0.06274,0.173739 -0.138383,0.367449 -0.21875,0.53125 -0.04158,0.0828 -0.07904,0.169954 -0.125,0.25 -0.0546,0.09721 -0.126774,0.18835 -0.1875,0.28125 -0.09411,0.140965 -0.204921,0.275995 -0.3125,0.40625 -0.143174,0.17445 -0.303141,0.346998 -0.46875,0.5 -0.01117,0.0102 -0.01998,0.02115 -0.03125,0.03125 -0.138386,0.125556 -0.285091,0.234436 -0.4375,0.34375 -0.102571,0.07315 -0.204318,0.153364 -0.3125,0.21875 -0.0074,0.0045 -0.02384,-0.0044 -0.03125,0 -0.232039,0.138728 -0.462548,0.274778 -0.71875,0.375 0.301527,-0.0968 0.596455,-0.204138 0.875,-0.34375 0.55709,-0.279224 1.060053,-0.665694 1.5,-1.09375 0.219973,-0.214028 0.409366,-0.441865 0.59375,-0.6875 0.184384,-0.245635 0.355408,-0.507743 0.5,-0.78125 0.14012,-0.265048 0.276135,-0.524729 0.375,-0.8125 0.01041,-0.03078 0.02133,-0.06274 0.03125,-0.09375 0.09046,-0.278085 0.1388,-0.579404 0.1875,-0.875 0.0524,-0.31805 0.09375,-0.634029 0.09375,-0.96875 l 0,-2 0,-68 0,-2 c 0,-3.324 -2.676,-6 -6,-6 l -71.999997,0 z" />
  <path
     inkscape:connector-curvature="0"
     style="opacity:0.2;fill:url(#radialGradient3241);fill-opacity:1;fill-rule:nonzero;stroke:none"
     id="path3615"
     d="m -99.457625,38.745763 c -3.323995,0 -5.999995,-2.676 -5.999995,-6 l 0,-2 0,-68 0,-2 c 0,-0.334721 0.0414,-0.6507 0.0937,-0.96875 0.0487,-0.295596 0.097,-0.596915 0.1875,-0.875 0.01,-0.03038 0.0209,-0.0636 0.0312,-0.09375 0.0989,-0.287771 0.23488,-0.547452 0.375,-0.8125 0.14459,-0.273507 0.31561,-0.535615 0.5,-0.78125 0.18438,-0.245635 0.37377,-0.473472 0.59375,-0.6875 0.43994,-0.428056 0.94291,-0.814526 1.5,-1.09375 0.27854,-0.139612 0.57347,-0.246947 0.875,-0.34375 -0.2562,0.100222 -0.48671,0.236272 -0.71875,0.375 -0.007,0.0044 -0.0239,-0.0045 -0.0312,0 -0.0319,0.0193 -0.0623,0.04251 -0.0937,0.0625 -0.1204,0.0767 -0.23103,0.163513 -0.34375,0.25 -0.10618,0.0808 -0.21328,0.161112 -0.3125,0.25 -0.17793,0.161433 -0.34746,0.345388 -0.5,0.53125 -0.10758,0.130255 -0.2184,0.265285 -0.3125,0.40625 -0.0251,0.03838 -0.0384,0.08587 -0.0625,0.125 -0.0648,0.103032 -0.13023,0.204517 -0.1875,0.3125 -0.10101,0.194706 -0.20568,0.415701 -0.28125,0.625 -0.008,0.02181 -0.0236,0.04055 -0.0312,0.0625 -0.0318,0.09195 -0.0358,0.186831 -0.0625,0.28125 -0.0303,0.106618 -0.0704,0.203031 -0.0937,0.3125 -0.0729,0.341512 -0.125,0.698205 -0.125,1.0625 l 0,2 0,68 0,2 c 0,2.781848 2.21815,5 4.999995,5 l 2,0 67.999997,0 2,0 c 2.781848,0 5,-2.218152 5,-5 l 0,-2 0,-68 0,-2 c 0,-0.364295 -0.05212,-0.720988 -0.125,-1.0625 -0.04415,-0.206893 -0.08838,-0.397658 -0.15625,-0.59375 -0.0077,-0.02195 -0.0233,-0.04069 -0.03125,-0.0625 -0.06274,-0.173739 -0.138383,-0.367449 -0.21875,-0.53125 -0.04158,-0.0828 -0.07904,-0.169954 -0.125,-0.25 -0.0546,-0.09721 -0.126774,-0.18835 -0.1875,-0.28125 -0.09411,-0.140965 -0.204921,-0.275995 -0.3125,-0.40625 -0.143174,-0.17445 -0.303141,-0.346998 -0.46875,-0.5 -0.01117,-0.0102 -0.01998,-0.02115 -0.03125,-0.03125 -0.138386,-0.125556 -0.285091,-0.234436 -0.4375,-0.34375 -0.102571,-0.07315 -0.204318,-0.153364 -0.3125,-0.21875 -0.0074,-0.0045 -0.02384,0.0044 -0.03125,0 -0.232039,-0.138728 -0.462548,-0.274778 -0.71875,-0.375 0.301527,0.0968 0.596455,0.204138 0.875,0.34375 0.55709,0.279224 1.060053,0.665694 1.5,1.09375 0.219973,0.214028 0.409366,0.441865 0.59375,0.6875 0.184384,0.245635 0.355408,0.507743 0.5,0.78125 0.14012,0.265048 0.276135,0.524729 0.375,0.8125 0.01041,0.03078 0.02133,0.06274 0.03125,0.09375 0.09046,0.278085 0.1388,0.579404 0.1875,0.875 0.0524,0.31805 0.09375,0.634029 0.09375,0.96875 l 0,2 0,68 0,2 c 0,3.324 -2.676,6 -6,6 l -71.999997,0 z" />
  <path
     style="font-size:51.59928131000000207px;font-style:normal;font-variant:normal;font-weight:normal;font-stretch:normal;text-align:start;line-height:125%;writing-mode:lr-tb;text-anchor:start;opacity:0.90000000000000002;fill:#ffffff;fill-opacity:1;stroke:none;font-family:DejaVu Sans;-inkscape-font-specification:DejaVu Sans"
     d="m 26.852987,27.396713 c -4.001373,1.1e-5 -6.773612,0.353656 -8.316723,1.060933 -1.543134,0.707299 -2.314695,1.913851 -2.314687,3.619656 -8e-6,1.359111 0.574177,2.440846 1.722558,3.245208 1.166304,0.790503 2.745313,1.185752 4.737033,1.18575 2.745309,2e-6 4.943361,-0.748891 6.594164,-2.246683 1.668705,-1.51165 2.503068,-3.515635 2.503092,-6.011957 l 0,-0.852907 -4.925437,0 m 9.87779,-1.580999 0,13.292874 -4.952353,0 0,-3.536445 c -1.130451,1.414579 -2.538999,2.461644 -4.225649,3.141199 -1.686688,0.665677 -3.750167,0.998519 -6.19044,0.998519 -3.086259,0 -5.54449,-0.665685 -7.3747,-1.997049 -1.812278,-1.345233 -2.718413,-3.141192 -2.718411,-5.387877 -2e-6,-2.621122 1.130424,-4.597369 3.391285,-5.928747 2.278791,-1.331354 5.670073,-1.997038 10.173856,-1.997053 l 6.944059,0 0,-0.374446 c -2.4e-5,-1.761271 -0.753642,-3.120375 -2.260857,-4.077314 -1.489314,-0.970768 -3.588679,-1.456163 -6.2981,-1.456183 -1.722571,2e-5 -3.400269,0.159507 -5.033098,0.47846 -1.632849,0.318992 -3.202887,0.797454 -4.710118,1.43538 l 0,-3.536445 c 1.812267,-0.540845 3.570709,-0.943028 5.275332,-1.206552 1.704602,-0.277344 3.364356,-0.416029 4.979268,-0.416052 4.360203,2.3e-5 7.616911,0.873733 9.77013,2.62113 2.153169,1.74744 3.229767,4.396305 3.229796,7.946601 M 20.043502,5.0338975 l 7.590018,7.7801795 -4.117988,0 -8.774278,-7.7801795 5.302248,0"
     id="path3693"
     inkscape:connector-curvature="0" />
</svg>
